0
SECTION
2
HEADER
9
$INSUNITS
70
4
9
$ACADVER
1
AC1014
9
$HANDSEED
5
FFFF
0
ENDSEC
0
SECTION
2
TABLES
0
TABLE
2
VPORT
5
8
100
AcDbSymbolTable
0
ENDTAB
0
TABLE
2
LTYPE
5
5
100
AcDbSymbolTable
0
LTYPE
5
14
100
AcDbSymbolTableRecord
100
AcDbLinetypeTableRecord
2
BYBLOCK
70
0
0
LTYPE
5
15
100
AcDbSymbolTableRecord
100
AcDbLinetypeTableRecord
2
BYLAYER
70
0
0
ENDTAB
0
TABLE
2
LAYER
5
2
100
AcDbSymbolTable
70
2
0
LAYER
5
50
100
AcDbSymbolTableRecord
100
AcDbLayerTableRecord
2
0
70
0
6
CONTINUOUS
0
ENDTAB
0
TABLE
2
STYLE
5
3
100
AcDbSymbolTable
70
1
0
STYLE
5
11
100
AcDbSymbolTableRecord
100
AcDbTextStyleTableRecord
2
STANDARD
70
0
0
ENDTAB
0
TABLE
2
VIEW
5
6
100
AcDbSymbolTable
70
0
0
ENDTAB
0
TABLE
2
UCS
5
7
100
AcDbSymbolTable
70
0
0
ENDTAB
0
TABLE
2
APPID
5
9
100
AcDbSymbolTable
70
2
0
APPID
5
12
100
AcDbSymbolTableRecord
100
AcDbRegAppTableRecord
2
ACAD
70
0
0
ENDTAB
0
TABLE
2
DIMSTYLE
5
A
100
AcDbSymbolTable
70
1
0
ENDTAB
0
TABLE
2
BLOCK_RECORD
5
1
100
AcDbSymbolTable
70
1
0
BLOCK_RECORD
5
1F
100
AcDbSymbolTableRecord
100
AcDbBlockTableRecord
2
*MODEL_SPACE
0
BLOCK_RECORD
5
1B
100
AcDbSymbolTableRecord
100
AcDbBlockTableRecord
2
*PAPER_SPACE
0
ENDTAB
0
ENDSEC
0
SECTION
2
BLOCKS
0
BLOCK
5
20
100
AcDbEntity
100
AcDbBlockBegin
2
*MODEL_SPACE
0
ENDBLK
5
21
100
AcDbEntity
100
AcDbBlockEnd
0
BLOCK
5
1C
100
AcDbEntity
100
AcDbBlockBegin
2
*PAPER_SPACE
0
ENDBLK
5
1D
100
AcDbEntity
100
AcDbBlockEnd
0
ENDSEC
0
SECTION
2
ENTITIES
0
LWPOLYLINE
5
100
100
AcDbEntity
8
0
100
AcDbPolyline
90
36
70
1
43
0.0
10
-491.42606843428263
20
58.589003150895508
10
-491.42606843428263
20
5.5890031061921697
10
-495.92607163803223
20
5.5890031061921697
10
-495.92607163803223
20
8.5890031508956532
10
-506.92607163803223
20
8.5890031508956532
10
-506.92607163803223
20
5.5890031061921697
10
-510.92607163803223
20
5.5890031061921697
10
-510.92607163803223
20
8.5890031508956532
10
-521.92607163803223
20
8.5890031508956532
10
-521.92607163803223
20
5.5890031061921697
10
-531.42607163803223
20
5.5890031061921697
10
-531.42607163803223
20
24.089003150895579
10
-534.42607163803223
20
24.089003150895614
10
-534.42607163803223
20
63.089003150895522
10
-531.42607163803211
20
63.089003150895486
10
-531.42607163803211
20
104.08900315089538
10
-534.4260690750325
20
104.08900315089538
10
-534.4260690750325
20
123.08900315089534
10
-531.42607163803223
20
123.08900315089534
10
-531.42607163803223
20
124.58900315089537
10
-521.42607163803223
20
124.58900315089537
10
-521.42607163803223
20
144.58900315089528
10
-531.48441469632519
20
144.58900315089528
10
-531.41015979087069
20
158.58897501910764
10
-521.42606888131741
20
158.58897501910764
10
-521.42606888131741
20
161.58900543077294
10
-511.42606873230585
20
161.58900543077294
10
-511.42606873230585
20
158.58900538606946
10
-506.42606865780004
20
158.58900538606946
10
-506.42606865780004
20
161.58900543077294
10
-496.42606850878843
20
161.58900543077294
10
-496.42606850878843
20
158.58900315089528
10
-491.42606843428263
20
158.58900315089528
10
-491.42606843428263
20
108.58900464101151
10
-494.42606847898611
20
108.58900464101151
10
-494.42606847898611
20
58.589003150895508
0
LWPOLYLINE
5
101
100
AcDbEntity
8
0
100
AcDbPolyline
90
36
70
1
43
0.0
10
-166.73618258255567
20
24.410964352794551
10
-166.73617744910572
20
6.410964755125903
10
-204.7361774491057
20
6.4109646433671941
10
-204.73617553207205
20
9.4109519077895598
10
-224.73617949801536
20
9.4109646880706777
10
-224.73617949801536
20
6.410964755125903
10
-264.73617949801536
20
6.410964755125903
10
-264.73617949801536
20
9.4109646880706777
10
-304.73617949801536
20
9.4109646880706777
10
-304.73617949801536
20
6.410964755125903
10
-322.73617909568401
20
6.4109596216759357
10
-322.7361761891371
20
44.410959860570074
10
-319.73617694251595
20
44.410983565214153
10
-319.73617916273923
20
64.410961670585579
10
-322.7361784984484
20
64.410961909480051
10
-322.7361737205627
20
104.41096190947971
10
-319.73617916273923
20
104.41096167058558
10
-319.7361832086039
20
144.41126990373763
10
-322.73618320860385
20
144.41126958736379
10
-322.7361851068469
20
162.41126958736371
10
-284.73617909568469
20
162.41096126825448
10
-284.73617909568469
20
159.41096133530976
10
-264.73617704677542
20
159.41096133530976
10
-264.73617704677542
20
162.41096126825448
10
-224.73617704677608
20
162.41096126825443
10
-224.73617704677608
20
159.41096133530974
10
-184.73617704677679
20
159.41096133530971
10
-184.73617704677679
20
162.4109612682544
10
-166.73617744910848
20
162.41096126825437
10
-166.73618258255573
20
124.41096640170421
10
-169.7361825155005
20
124.41096640170421
10
-169.7361825155005
20
104.41096435279455
10
-166.73618258255573
20
104.41096435279455
10
-166.73618258255567
20
64.410964352794537
10
-169.73618251550045
20
64.410964352794537
10
-169.73618251550045
20
24.410964352794551
0
LWPOLYLINE
5
102
100
AcDbEntity
8
0
100
AcDbPolyline
90
20
70
1
43
0.0
10
-482.35050228282216
20
158.12240340559029
10
-482.35050304278138
20
107.12240340559029
10
-485.35050307258371
20
107.12240340559029
10
-485.35050307258371
20
59.122404405590494
10
-482.35050302788022
20
59.122404405590494
10
-482.35050302788022
20
8.1224034055905037
10
-431.35050302788017
20
8.1224034055905037
10
-431.35050302788017
20
5.1224033608870201
10
-383.35050995692052
20
5.1224033608870201
10
-383.35050995692052
20
8.1224034055905037
10
-332.35050995692052
20
8.1224034055905037
10
-332.35050995692052
20
59.122403405590518
10
-329.3505007480029
20
59.122403405590518
10
-329.3505007480029
20
107.12240340559028
10
-332.35050995692052
20
107.12240340559028
10
-332.35050995692052
20
158.12240340559029
10
-383.35050995692052
20
158.12240340559029
10
-383.35050995692052
20
162.77582260260988
10
-431.35050228282211
20
162.77582260260988
10
-431.35050228282211
20
158.12240340559029
0
LWPOLYLINE
5
103
100
AcDbEntity
8
0
100
AcDbPolyline
90
4
70
1
43
0.0
10
-385.85050307258382
20
96.275822602609907
10
-428.85050307258371
20
96.275822602609907
10
-428.85050307258371
20
73.275822602609892
10
-385.85050307258382
20
73.275822602609892
0
CIRCLE
5
104
100
AcDbEntity
8
0
100
AcDbCircle
10
-83.442505758678465
20
82.219229745520494
30
0
40
75
210
0
220
0
230
1
0
LINE
5
105
100
AcDbEntity
8
0
100
AcDbLine
10
-383.35050995692052
20
158.12240340559029
30
0
11
-383.35050995692052
21
159.62240566311621
31
0
0
LWPOLYLINE
5
106
100
AcDbEntity
8
0
100
AcDbPolyline
90
32
70
1
43
0.0
10
-70.301697686266806
20
214.19235039238504
10
-70.301697686266806
20
217.19234782938526
10
-51.301697686266898
20
217.19234782938526
10
-51.301697686266898
20
214.19235039238504
10
-15.801697686266998
20
214.19235039238509
10
-15.801697686266998
20
204.19234763567027
10
-12.801695406389335
20
204.19234763567027
10
-12.801695406389335
20
194.19234748665869
10
-15.801695451092819
20
194.19234748665869
10
-15.801695451092819
20
189.19234741215288
10
-12.801695406389335
20
189.19234741215288
10
-12.8016954063893
20
179.1923472631413
10
-15.801697686266962
20
179.1923472631413
10
-15.801697686266962
20
174.19234718863552
10
-65.801696196150658
20
174.19234718863549
10
-65.801696196150658
20
177.19234723333895
10
-115.80169768626664
20
177.19234723333892
10
-115.80169768626664
20
174.19234718863547
10
-168.80169773097009
20
174.19234718863544
10
-168.80169773097009
20
178.69235039238504
10
-165.80169768626655
20
178.69235039238504
10
-165.80169768626655
20
189.69235039238501
10
-168.80169773097009
20
189.69235039238501
10
-168.80169773097009
20
193.69235039238501
10
-165.80169768626655
20
193.69235039238501
10
-165.80169768626655
20
204.69235039238498
10
-168.80169773097003
20
204.69235039238498
10
-168.80169773097003
20
214.19235039238501
10
-150.30169773882574
20
214.19235037655761
10
-150.30169771182534
20
217.19235038472766
10
-111.30169617410201
20
217.19235123734819
10
-111.30169768626669
20
214.19235039238504
0
LWPOLYLINE
5
107
100
AcDbEntity
8
0
100
AcDbPolyline
90
32
70
1
43
0.0
10
-338.80169773097009
20
178.69235039238504
10
-335.80169768626661
20
178.69235039238504
10
-335.80169768626661
20
189.69235039238501
10
-338.80169773097009
20
189.69235039238501
10
-338.80169773097009
20
193.69235039238501
10
-335.80169768626661
20
193.69235039238501
10
-335.80169768626661
20
204.69235039238498
10
-338.80169773097009
20
204.69235039238498
10
-338.80169773097009
20
214.19235039238501
10
-320.30169773882574
20
214.19235037655761
10
-320.30169771182545
20
217.19235038472766
10
-281.30169617410206
20
217.19235123734819
10
-281.30169768626672
20
214.19235039238504
10
-240.30169768626683
20
214.19235039238504
10
-240.30169768626683
20
217.19234782938526
10
-221.30169768626695
20
217.19234782938526
10
-221.30169768626695
20
214.19235039238504
10
-185.80169768626703
20
214.19235039238509
10
-185.80169768626703
20
204.19234763567027
10
-182.80169540638937
20
204.19234763567027
10
-182.80169540638937
20
194.19234748665869
10
-185.80169545109285
20
194.19234748665869
10
-185.80169545109285
20
189.19234741215288
10
-182.80169540638937
20
189.19234741215288
10
-182.80169540638934
20
179.1923472631413
10
-185.801697686267
20
179.1923472631413
10
-185.801697686267
20
174.19234718863552
10
-235.80169619615071
20
174.19234718863549
10
-235.80169619615071
20
177.19234723333895
10
-285.80169768626666
20
177.19234723333892
10
-285.80169768626666
20
174.19234718863547
10
-338.80169773097009
20
174.19234718863544
0
LWPOLYLINE
5
108
100
AcDbEntity
8
0
100
AcDbPolyline
90
32
70
1
43
0.0
10
-508.80169773097009
20
178.69235039238504
10
-505.80169768626655
20
178.69235039238504
10
-505.80169768626655
20
189.69235039238501
10
-508.80169773097009
20
189.69235039238501
10
-508.80169773097009
20
193.69235039238501
10
-505.80169768626655
20
193.69235039238501
10
-505.80169768626655
20
204.69235039238498
10
-508.80169773097003
20
204.69235039238498
10
-508.80169773097003
20
214.19235039238501
10
-490.30169773882574
20
214.19235037655761
10
-490.30169771182534
20
217.19235038472766
10
-451.30169617410206
20
217.19235123734819
10
-451.30169768626672
20
214.19235039238504
10
-410.30169768626678
20
214.19235039238504
10
-410.30169768626678
20
217.19234782938526
10
-391.30169768626683
20
217.19234782938526
10
-391.30169768626683
20
214.19235039238504
10
-355.80169768626706
20
214.19235039238509
10
-355.80169768626706
20
204.19234763567027
10
-352.8016954063894
20
204.19234763567027
10
-352.8016954063894
20
194.19234748665869
10
-355.80169545109288
20
194.19234748665869
10
-355.80169545109288
20
189.19234741215288
10
-352.8016954063894
20
189.19234741215288
10
-352.80169540638929
20
179.1923472631413
10
-355.80169768626695
20
179.1923472631413
10
-355.80169768626695
20
174.19234718863552
10
-405.8016961961506
20
174.19234718863549
10
-405.8016961961506
20
177.19234723333895
10
-455.80169768626661
20
177.19234723333892
10
-455.80169768626661
20
174.19234718863547
10
-508.80169773097009
20
174.19234718863544
0
CIRCLE
5
109
100
AcDbEntity
8
0
100
AcDbCircle
10
-83.442505758678465
20
82.219229745520494
30
0
40
18
210
0
220
0
230
1
0
ENDSEC
0
SECTION
2
OBJECTS
0
DICTIONARY
5
C
100
AcDbDictionary
3
ACAD_GROUP
350
D
3
ACAD_MLINESTYLE
350
17
0
DICTIONARY
5
D
100
AcDbDictionary
0
DICTIONARY
5
1A
330
C
100
AcDbDictionary
0
DICTIONARY
5
17
100
AcDbDictionary
0
ENDSEC
0
EOF
